<svg xmlns="http://www.w3.org/2000/svg" viewBox="0 0 205.65 59.16"><defs><style>.cls-1{fill:#0c2c84;}.cls-2{fill:#ca0014;}.cls-3{fill:#fff;}</style></defs><g id="Layer_2" data-name="Layer 2"><g id="Layer_1-2" data-name="Layer 1"><rect class="cls-1" x="68.94" y="9.33" width="7.56" height="23.07"/><rect class="cls-1" x="79.33" y="0.67" width="7.56" height="31.74"/><path class="cls-1" d="M96.82,22.71C97,25.87,98.77,28,102,28a4.51,4.51,0,0,0,4.31-2.54h7.07c-1.38,5.34-6.31,7.65-11.47,7.65-7.51,0-12.62-4.53-12.62-12.27A12.11,12.11,0,0,1,101.71,8.66c8.26,0,12.39,6.23,12,14.05Zm9.37-4.22a4.66,4.66,0,0,0-4.48-4.71c-2.67,0-4.45,1.91-4.89,4.71Z"/><path class="cls-2" d="M126.22.67h8.4L146.48,32.4h-8.62l-2-5.69H125.35a30.9,30.9,0,0,1-1.25,2.85c-.87-.24-7.14-2.28-7.45-2.51,4.71-9.17,9.57-26.38,9.57-26.38m.53,19.91H134L130.44,9.47h-.09Z"/><path class="cls-2" d="M153.72,24.8A3.11,3.11,0,0,0,155,27.38a4.8,4.8,0,0,0,2.81.8c1.46,0,3.55-.62,3.55-2.45s-2.35-2.13-3.69-2.44c-4.75-1.2-10.71-1.33-10.71-7.56,0-5.55,6-7.07,10.54-7.07,5.06,0,10.35,1.47,10.62,7.48h-7a2.2,2.2,0,0,0-1-2,4.45,4.45,0,0,0-2.4-.57c-1.24,0-3.24.13-3.24,1.73,0,2.18,5.06,2.58,8.53,3.33,4.67.94,5.87,4.31,5.87,6.23,0,6.17-5.87,8.22-11.07,8.22-5.46,0-11.07-1.82-11.29-8.27Z"/><rect class="cls-2" x="171.6" y="9.33" width="7.56" height="23.07"/><path class="cls-2" d="M183.07,16.44a7.09,7.09,0,0,1,3.6-6.18A15.26,15.26,0,0,1,194,8.66c5.47,0,10.76,1.21,10.76,7.74V26.49a13.41,13.41,0,0,0,.89,5.91h-7.6a8.9,8.9,0,0,1-.45-2.18,10.39,10.39,0,0,1-7.6,2.85c-4.4,0-7.87-2.22-7.87-7,0-7.51,8.18-6.93,13.42-8,1.29-.27,2-.71,2-2.13,0-1.74-2.09-2.4-3.65-2.4-2.09,0-3.42.93-3.77,2.88Zm9.78,12c3.6,0,4.8-2,4.62-6.8-1.07.67-3,.8-4.67,1.24s-3.11,1.12-3.11,2.94,1.46,2.62,3.16,2.62"/><path class="cls-2" d="M116.28,28.93l-.53-.14C104.65,44.32,90,52.16,72.64,52.48A54,54,0,0,1,25.62,27c9.66,19.48,29,32.62,51,32.21,19.29-.37,36.11-11,46-27-2.6-1.26-4.72-2.35-6.32-3.2"/><path class="cls-1" d="M30,9.33h7.34v3.16h.09a7.7,7.7,0,0,1,6.62-3.83c2.89,0,5.47.94,6.71,3.74A8.48,8.48,0,0,1,58,8.66c7.34,0,8.14,5.56,8.14,10V32.4H58.58V18.85c0-2.49-1.2-4-3.15-4-3.25,0-3.56,2.49-3.56,6.22V32.4H44.31V19.29c0-2.71-.79-4.4-2.84-4.4-2.71,0-3.87,1.55-3.87,6.27V32.4H30Z"/><path class="cls-1" d="M8.27,21.74c.17,3.73,2.49,4.93,6,4.93,2.49,0,5.06-.89,5.06-3.25,0-2.8-4.53-3.33-9.1-4.62S.93,15.47.93,9.64C.93,2.71,7.91,0,13.87,0c6.31,0,12.67,3.07,12.71,10.22H18.31c.13-2.89-2.58-3.82-5.11-3.82-1.78,0-4,.62-4,2.71,0,2.45,4.58,2.89,9.2,4.18s9.2,3.42,9.2,9.16c0,8-6.84,10.62-13.82,10.62C6.49,33.07.05,29.87,0,21.74Z"/><path class="cls-1" d="M76.21,4.18A3.63,3.63,0,1,0,72.59,7.8a3.62,3.62,0,0,0,3.62-3.62"/><path class="cls-2" d="M178.86,4.18a3.63,3.63,0,1,0-3.63,3.62,3.63,3.63,0,0,0,3.63-3.62"/><rect class="cls-3" x="68.94" y="9.33" width="7.56" height="23.07"/><rect class="cls-3" x="79.33" y="0.67" width="7.56" height="31.74"/><path class="cls-3" d="M96.82,22.71C97,25.87,98.77,28,102,28a4.51,4.51,0,0,0,4.31-2.54h7.07c-1.38,5.34-6.31,7.65-11.47,7.65-7.51,0-12.62-4.53-12.62-12.27A12.11,12.11,0,0,1,101.71,8.66c8.26,0,12.39,6.23,12,14.05Zm9.37-4.22a4.66,4.66,0,0,0-4.48-4.71c-2.67,0-4.45,1.91-4.89,4.71Z"/><path class="cls-3" d="M126.22.67h8.4L146.48,32.4h-8.62l-2-5.69H125.35a30.9,30.9,0,0,1-1.25,2.85c-.87-.24-7.14-2.28-7.45-2.51,4.71-9.17,9.57-26.38,9.57-26.38m.53,19.91H134L130.44,9.47h-.09Z"/><path class="cls-3" d="M153.72,24.8A3.11,3.11,0,0,0,155,27.38a4.8,4.8,0,0,0,2.81.8c1.46,0,3.55-.62,3.55-2.45s-2.35-2.13-3.69-2.44c-4.75-1.2-10.71-1.33-10.71-7.56,0-5.55,6-7.07,10.54-7.07,5.06,0,10.35,1.47,10.62,7.48h-7a2.2,2.2,0,0,0-1-2,4.45,4.45,0,0,0-2.4-.57c-1.24,0-3.24.13-3.24,1.73,0,2.18,5.06,2.58,8.53,3.33,4.67.94,5.87,4.31,5.87,6.23,0,6.17-5.87,8.22-11.07,8.22-5.46,0-11.07-1.82-11.29-8.27Z"/><rect class="cls-3" x="171.6" y="9.33" width="7.56" height="23.07"/><path class="cls-3" d="M183.07,16.44a7.09,7.09,0,0,1,3.6-6.18A15.26,15.26,0,0,1,194,8.66c5.47,0,10.76,1.21,10.76,7.74V26.49a13.41,13.41,0,0,0,.89,5.91h-7.6a8.9,8.9,0,0,1-.45-2.18,10.39,10.39,0,0,1-7.6,2.85c-4.4,0-7.87-2.22-7.87-7,0-7.51,8.18-6.93,13.42-8,1.29-.27,2-.71,2-2.13,0-1.74-2.09-2.4-3.65-2.4-2.09,0-3.42.93-3.77,2.88Zm9.78,12c3.6,0,4.8-2,4.62-6.8-1.07.67-3,.8-4.67,1.24s-3.11,1.12-3.11,2.94,1.46,2.62,3.16,2.62"/><path class="cls-3" d="M116.28,28.93l-.53-.14C104.65,44.32,90,52.16,72.64,52.48A54,54,0,0,1,25.62,27c9.66,19.48,29,32.62,51,32.21,19.29-.37,36.11-11,46-27-2.6-1.26-4.72-2.35-6.32-3.2"/><path class="cls-3" d="M30,9.33h7.34v3.16h.09a7.7,7.7,0,0,1,6.62-3.83c2.89,0,5.47.94,6.71,3.74A8.48,8.48,0,0,1,58,8.66c7.34,0,8.14,5.56,8.14,10V32.4H58.58V18.85c0-2.49-1.2-4-3.15-4-3.25,0-3.56,2.49-3.56,6.22V32.4H44.31V19.29c0-2.71-.79-4.4-2.84-4.4-2.71,0-3.87,1.55-3.87,6.27V32.4H30Z"/><path class="cls-3" d="M8.27,21.74c.17,3.73,2.49,4.93,6,4.93,2.49,0,5.06-.89,5.06-3.25,0-2.8-4.53-3.33-9.1-4.62S.93,15.47.93,9.64C.93,2.71,7.91,0,13.87,0c6.31,0,12.67,3.07,12.71,10.22H18.31c.13-2.89-2.58-3.82-5.11-3.82-1.78,0-4,.62-4,2.71,0,2.45,4.58,2.89,9.2,4.18s9.2,3.42,9.2,9.16c0,8-6.84,10.62-13.82,10.62C6.49,33.07.05,29.87,0,21.74Z"/><path class="cls-3" d="M76.21,4.18A3.63,3.63,0,1,0,72.59,7.8a3.62,3.62,0,0,0,3.62-3.62"/><path class="cls-3" d="M178.86,4.18a3.63,3.63,0,1,0-3.63,3.62,3.63,3.63,0,0,0,3.63-3.62"/></g></g></svg>